# xmcd
#
# Track frame offsets:
#	150
#	11558
#	22712
#	44253
#	64738
#	85396
#	100991
#	115942
#	131377
#	147379
#	168210
#	184417
#
# Disc length: 2754 seconds
#
# Revision: 0
# Processed by: cddbd v1.4PL0 Copyright (c) Steve Scherf et al.
# Submitted via: dBpowerAMP V4.0
#
DISCID=9a0ac00c
DTITLE=Various Artist - Encore- Classic Tracks from WNCW's Crown Around the Mic, Volumes 1-6
DYEAR=1900
DGENRE=Alternative
TTITLE0=Boomtown- Greg Brown
TTITLE1=White Trash- Fred Eaglesmith
TTITLE2=Andersonville- Dave Alvin and The Guilty Men
TTITLE3=The Come Here and The Been Heres- Chuck Brodsky
TTITLE4=Johnny Got a Mohawk- David Childers
TTITLE5=It Must Be Love- Stacey Earle
TTITLE6=Feelin' Good Again- Robert Earl Keen
TTITLE7=Homegrown Tomatoes- Guy Clark
TTITLE8=Clay and Ottie-  Blue Highway
TTITLE9=Tides of Time- Donna the Buffalo
TTITLE10=No Lonesome Tune- Jimmie Dale Gilmore
TTITLE11=Back Roads and Rainy Days- Kevin Kinney
EXTD=
EXTT0=
EXTT1=
EXTT2=
EXTT3=
EXTT4=
EXTT5=
EXTT6=
EXTT7=
EXTT8=
EXTT9=
EXTT10=
EXTT11=
PLAYORDER=
